<svg xmlns="http://www.w3.org/2000/svg" xmlns:xlink="http://www.w3.org/1999/xlink" width="500" zoomAndPan="magnify" viewBox="0 0 375 374.999991" height="500" preserveAspectRatio="xMidYMid meet" version="1.0"><defs><clipPath id="ec8d922d3d"><path d="M 122 91.132812 L 368.585938 91.132812 L 368.585938 247 L 122 247 Z M 122 91.132812 " clip-rule="nonzero"/></clipPath><clipPath id="79ae931a0a"><path d="M 157 252 L 213 252 L 213 307.882812 L 157 307.882812 Z M 157 252 " clip-rule="nonzero"/></clipPath><clipPath id="b2a7ca088a"><path d="M 234 252 L 290 252 L 290 307.882812 L 234 307.882812 Z M 234 252 " clip-rule="nonzero"/></clipPath><clipPath id="99d00b2fc8"><path d="M 6.335938 185 L 149 185 L 149 202 L 6.335938 202 Z M 6.335938 185 " clip-rule="nonzero"/></clipPath></defs><g clip-path="url(#ec8d922d3d)"><path fill="#8c52ff" d="M 368.585938 133.507812 L 343.539062 237.457031 C 343.539062 237.953125 343.488281 238.441406 343.390625 238.925781 C 343.292969 239.410156 343.148438 239.878906 342.960938 240.335938 C 342.769531 240.792969 342.535156 241.226562 342.261719 241.636719 C 341.988281 242.050781 341.671875 242.429688 341.324219 242.777344 C 340.972656 243.128906 340.59375 243.441406 340.183594 243.714844 C 339.769531 243.992188 339.335938 244.222656 338.878906 244.414062 C 338.421875 244.605469 337.953125 244.746094 337.46875 244.84375 C 336.980469 244.941406 336.492188 244.992188 335.996094 244.996094 L 167.230469 246.214844 C 166.738281 246.214844 166.246094 246.164062 165.761719 246.066406 C 165.277344 245.96875 164.804688 245.824219 164.347656 245.636719 C 163.890625 245.445312 163.457031 245.214844 163.046875 244.9375 C 162.636719 244.664062 162.253906 244.351562 161.90625 244 C 161.554688 243.652344 161.242188 243.269531 160.96875 242.859375 C 160.691406 242.449219 160.460938 242.015625 160.269531 241.558594 C 160.078125 241.101562 159.933594 240.632812 159.835938 240.148438 C 159.738281 239.664062 159.691406 239.171875 159.6875 238.679688 L 159.6875 133.496094 C 159.6875 133.289062 159.695312 133.082031 159.714844 132.878906 L 157.433594 112.527344 L 132.484375 112.527344 C 131.800781 112.5 131.128906 112.40625 130.460938 112.25 C 129.796875 112.09375 129.148438 111.875 128.527344 111.59375 C 127.902344 111.316406 127.3125 110.976562 126.75 110.582031 C 126.191406 110.191406 125.675781 109.746094 125.203125 109.253906 C 124.726562 108.761719 124.304688 108.226562 123.933594 107.652344 C 123.5625 107.078125 123.25 106.476562 122.992188 105.839844 C 122.738281 105.207031 122.542969 104.554688 122.414062 103.882812 C 122.285156 103.210938 122.21875 102.535156 122.21875 101.851562 C 122.21875 101.167969 122.285156 100.488281 122.414062 99.820312 C 122.542969 99.148438 122.738281 98.496094 122.992188 97.859375 C 123.25 97.226562 123.5625 96.621094 123.933594 96.046875 C 124.304688 95.472656 124.726562 94.941406 125.203125 94.449219 C 125.675781 93.957031 126.191406 93.511719 126.75 93.117188 C 127.3125 92.722656 127.902344 92.386719 128.527344 92.105469 C 129.148438 91.824219 129.796875 91.609375 130.460938 91.449219 C 131.128906 91.292969 131.800781 91.203125 132.484375 91.175781 L 176.523438 91.175781 C 176.527344 91.214844 176.527344 91.25 176.523438 91.289062 L 178.90625 112.539062 L 180.414062 125.964844 L 361.042969 125.964844 C 361.539062 125.96875 362.027344 126.019531 362.515625 126.117188 C 363 126.214844 363.46875 126.355469 363.925781 126.546875 C 364.382812 126.738281 364.820312 126.96875 365.230469 127.246094 C 365.640625 127.519531 366.023438 127.832031 366.371094 128.183594 C 366.722656 128.53125 367.035156 128.914062 367.308594 129.324219 C 367.585938 129.734375 367.816406 130.167969 368.007812 130.625 C 368.199219 131.082031 368.339844 131.554688 368.4375 132.039062 C 368.535156 132.523438 368.585938 133.011719 368.585938 133.507812 Z M 368.585938 133.507812 " fill-opacity="1" fill-rule="nonzero"/></g><g clip-path="url(#79ae931a0a)"><path fill="#5e17eb" d="M 212.203125 280.398438 C 212.203125 281.296875 212.15625 282.195312 212.070312 283.089844 C 211.980469 283.988281 211.847656 284.875 211.671875 285.757812 C 211.496094 286.640625 211.28125 287.511719 211.019531 288.371094 C 210.757812 289.234375 210.453125 290.078125 210.109375 290.910156 C 209.765625 291.742188 209.378906 292.554688 208.957031 293.347656 C 208.53125 294.140625 208.070312 294.910156 207.570312 295.660156 C 207.070312 296.40625 206.53125 297.128906 205.960938 297.824219 C 205.390625 298.519531 204.785156 299.183594 204.152344 299.820312 C 203.515625 300.457031 202.847656 301.058594 202.152344 301.632812 C 201.457031 302.203125 200.734375 302.738281 199.984375 303.238281 C 199.238281 303.738281 198.464844 304.199219 197.671875 304.621094 C 196.878906 305.046875 196.0625 305.429688 195.234375 305.773438 C 194.402344 306.121094 193.554688 306.421875 192.691406 306.683594 C 191.832031 306.945312 190.957031 307.164062 190.074219 307.339844 C 189.191406 307.511719 188.304688 307.644531 187.40625 307.734375 C 186.511719 307.820312 185.613281 307.867188 184.714844 307.867188 C 183.8125 307.867188 182.914062 307.820312 182.019531 307.734375 C 181.121094 307.644531 180.234375 307.511719 179.351562 307.339844 C 178.46875 307.164062 177.59375 306.945312 176.734375 306.683594 C 175.871094 306.421875 175.027344 306.121094 174.195312 305.773438 C 173.363281 305.429688 172.550781 305.046875 171.753906 304.621094 C 170.960938 304.199219 170.191406 303.738281 169.441406 303.238281 C 168.691406 302.738281 167.972656 302.203125 167.273438 301.632812 C 166.578125 301.058594 165.914062 300.457031 165.277344 299.820312 C 164.640625 299.183594 164.035156 298.519531 163.464844 297.824219 C 162.894531 297.128906 162.359375 296.40625 161.859375 295.660156 C 161.355469 294.910156 160.894531 294.140625 160.46875 293.347656 C 160.046875 292.554688 159.660156 291.742188 159.316406 290.910156 C 158.972656 290.078125 158.667969 289.234375 158.410156 288.371094 C 158.148438 287.511719 157.929688 286.640625 157.753906 285.757812 C 157.578125 284.875 157.445312 283.988281 157.355469 283.089844 C 157.269531 282.195312 157.226562 281.296875 157.226562 280.398438 C 157.226562 279.5 157.269531 278.601562 157.355469 277.707031 C 157.445312 276.8125 157.578125 275.921875 157.753906 275.039062 C 157.929688 274.15625 158.148438 273.285156 158.410156 272.425781 C 158.667969 271.566406 158.972656 270.71875 159.316406 269.886719 C 159.660156 269.054688 160.046875 268.246094 160.46875 267.449219 C 160.894531 266.65625 161.355469 265.886719 161.859375 265.140625 C 162.359375 264.390625 162.894531 263.667969 163.464844 262.972656 C 164.035156 262.277344 164.640625 261.613281 165.277344 260.976562 C 165.914062 260.339844 166.578125 259.738281 167.273438 259.167969 C 167.972656 258.597656 168.691406 258.0625 169.441406 257.5625 C 170.191406 257.0625 170.960938 256.597656 171.753906 256.175781 C 172.550781 255.75 173.363281 255.367188 174.195312 255.023438 C 175.027344 254.679688 175.871094 254.375 176.734375 254.113281 C 177.59375 253.851562 178.46875 253.636719 179.351562 253.460938 C 180.234375 253.285156 181.121094 253.152344 182.019531 253.0625 C 182.914062 252.976562 183.8125 252.933594 184.714844 252.933594 C 185.613281 252.933594 186.511719 252.976562 187.40625 253.0625 C 188.304688 253.152344 189.191406 253.285156 190.074219 253.460938 C 190.957031 253.636719 191.832031 253.851562 192.691406 254.113281 C 193.554688 254.375 194.402344 254.679688 195.234375 255.023438 C 196.0625 255.367188 196.878906 255.75 197.671875 256.175781 C 198.464844 256.597656 199.238281 257.0625 199.984375 257.5625 C 200.734375 258.0625 201.457031 258.597656 202.152344 259.167969 C 202.847656 259.738281 203.515625 260.339844 204.152344 260.976562 C 204.785156 261.613281 205.390625 262.277344 205.960938 262.972656 C 206.53125 263.667969 207.070312 264.390625 207.570312 265.140625 C 208.070312 265.886719 208.53125 266.65625 208.957031 267.449219 C 209.378906 268.246094 209.765625 269.054688 210.109375 269.886719 C 210.453125 270.71875 210.757812 271.566406 211.019531 272.425781 C 211.28125 273.285156 211.496094 274.15625 211.671875 275.039062 C 211.847656 275.921875 211.980469 276.8125 212.070312 277.707031 C 212.15625 278.601562 212.203125 279.5 212.203125 280.398438 Z M 212.203125 280.398438 " fill-opacity="1" fill-rule="nonzero"/></g><g clip-path="url(#b2a7ca088a)"><path fill="#5e17eb" d="M 289.78125 280.398438 C 289.78125 281.296875 289.738281 282.195312 289.652344 283.089844 C 289.5625 283.988281 289.429688 284.875 289.253906 285.757812 C 289.078125 286.640625 288.859375 287.511719 288.597656 288.371094 C 288.335938 289.234375 288.035156 290.078125 287.691406 290.910156 C 287.347656 291.742188 286.960938 292.554688 286.535156 293.347656 C 286.113281 294.140625 285.648438 294.910156 285.148438 295.660156 C 284.648438 296.40625 284.113281 297.128906 283.542969 297.824219 C 282.972656 298.519531 282.367188 299.183594 281.730469 299.820312 C 281.09375 300.457031 280.429688 301.058594 279.734375 301.632812 C 279.035156 302.203125 278.316406 302.738281 277.566406 303.238281 C 276.816406 303.738281 276.046875 304.199219 275.253906 304.621094 C 274.457031 305.046875 273.644531 305.429688 272.8125 305.773438 C 271.980469 306.121094 271.136719 306.421875 270.273438 306.683594 C 269.414062 306.945312 268.539062 307.164062 267.65625 307.339844 C 266.773438 307.511719 265.882812 307.644531 264.988281 307.734375 C 264.09375 307.820312 263.195312 307.867188 262.292969 307.867188 C 261.394531 307.867188 260.496094 307.820312 259.601562 307.734375 C 258.703125 307.644531 257.816406 307.511719 256.933594 307.339844 C 256.046875 307.164062 255.175781 306.945312 254.316406 306.683594 C 253.453125 306.421875 252.605469 306.121094 251.773438 305.773438 C 250.941406 305.429688 250.128906 305.046875 249.335938 304.621094 C 248.542969 304.199219 247.769531 303.738281 247.023438 303.238281 C 246.273438 302.738281 245.550781 302.203125 244.855469 301.632812 C 244.160156 301.058594 243.492188 300.457031 242.855469 299.820312 C 242.21875 299.183594 241.617188 298.519531 241.046875 297.824219 C 240.472656 297.128906 239.9375 296.40625 239.4375 295.660156 C 238.9375 294.910156 238.476562 294.140625 238.050781 293.347656 C 237.628906 292.554688 237.242188 291.742188 236.898438 290.910156 C 236.554688 290.078125 236.25 289.234375 235.988281 288.371094 C 235.726562 287.511719 235.511719 286.640625 235.335938 285.757812 C 235.160156 284.875 235.027344 283.988281 234.9375 283.089844 C 234.851562 282.195312 234.804688 281.296875 234.804688 280.398438 C 234.804688 279.5 234.851562 278.601562 234.9375 277.707031 C 235.027344 276.8125 235.160156 275.921875 235.335938 275.039062 C 235.511719 274.15625 235.726562 273.285156 235.988281 272.425781 C 236.25 271.566406 236.554688 270.71875 236.898438 269.886719 C 237.242188 269.054688 237.628906 268.246094 238.050781 267.449219 C 238.476562 266.65625 238.9375 265.886719 239.4375 265.140625 C 239.9375 264.390625 240.472656 263.667969 241.046875 262.972656 C 241.617188 262.277344 242.21875 261.613281 242.855469 260.976562 C 243.492188 260.339844 244.160156 259.738281 244.855469 259.167969 C 245.550781 258.597656 246.273438 258.0625 247.023438 257.5625 C 247.769531 257.0625 248.542969 256.597656 249.335938 256.175781 C 250.128906 255.75 250.941406 255.367188 251.773438 255.023438 C 252.605469 254.679688 253.453125 254.375 254.316406 254.113281 C 255.175781 253.851562 256.046875 253.636719 256.933594 253.460938 C 257.816406 253.285156 258.703125 253.152344 259.601562 253.0625 C 260.496094 252.976562 261.394531 252.933594 262.292969 252.933594 C 263.195312 252.933594 264.09375 252.976562 264.988281 253.0625 C 265.882812 253.152344 266.773438 253.285156 267.65625 253.460938 C 268.539062 253.636719 269.414062 253.851562 270.273438 254.113281 C 271.136719 254.375 271.980469 254.679688 272.8125 255.023438 C 273.644531 255.367188 274.457031 255.75 275.253906 256.175781 C 276.046875 256.597656 276.816406 257.0625 277.566406 257.5625 C 278.316406 258.0625 279.035156 258.597656 279.734375 259.167969 C 280.429688 259.738281 281.09375 260.339844 281.730469 260.976562 C 282.367188 261.613281 282.972656 262.277344 283.542969 262.972656 C 284.113281 263.667969 284.648438 264.390625 285.148438 265.140625 C 285.648438 265.886719 286.113281 266.65625 286.535156 267.449219 C 286.960938 268.246094 287.347656 269.054688 287.691406 269.886719 C 288.035156 270.71875 288.335938 271.566406 288.597656 272.425781 C 288.859375 273.285156 289.078125 274.15625 289.253906 275.039062 C 289.429688 275.921875 289.5625 276.8125 289.652344 277.707031 C 289.738281 278.601562 289.78125 279.5 289.78125 280.398438 Z M 289.78125 280.398438 " fill-opacity="1" fill-rule="nonzero"/></g><path fill="#8c52ff" d="M 78.421875 135.121094 L 141.339844 135.121094 C 141.824219 135.121094 142.300781 135.167969 142.769531 135.261719 C 143.242188 135.355469 143.703125 135.496094 144.144531 135.679688 C 144.589844 135.863281 145.011719 136.089844 145.414062 136.355469 C 145.8125 136.625 146.183594 136.925781 146.523438 137.265625 C 146.863281 137.605469 147.167969 137.976562 147.4375 138.378906 C 147.703125 138.777344 147.929688 139.199219 148.113281 139.644531 C 148.296875 140.085938 148.4375 140.546875 148.53125 141.015625 C 148.625 141.488281 148.671875 141.964844 148.671875 142.445312 L 148.671875 144.277344 C 148.671875 144.757812 148.625 145.234375 148.53125 145.707031 C 148.4375 146.179688 148.296875 146.636719 148.113281 147.082031 C 147.929688 147.523438 147.703125 147.945312 147.4375 148.347656 C 147.167969 148.746094 146.863281 149.117188 146.523438 149.457031 C 146.183594 149.796875 145.8125 150.101562 145.414062 150.367188 C 145.011719 150.636719 144.589844 150.859375 144.144531 151.042969 C 143.703125 151.230469 143.242188 151.367188 142.769531 151.460938 C 142.300781 151.554688 141.824219 151.601562 141.339844 151.601562 L 78.421875 151.601562 C 77.9375 151.601562 77.460938 151.554688 76.992188 151.460938 C 76.519531 151.367188 76.058594 151.230469 75.617188 151.042969 C 75.171875 150.859375 74.75 150.636719 74.347656 150.367188 C 73.949219 150.101562 73.578125 149.796875 73.238281 149.457031 C 72.898438 149.117188 72.59375 148.746094 72.324219 148.347656 C 72.058594 147.945312 71.832031 147.523438 71.648438 147.082031 C 71.464844 146.636719 71.324219 146.179688 71.230469 145.707031 C 71.136719 145.234375 71.089844 144.757812 71.089844 144.277344 L 71.089844 142.445312 C 71.089844 141.964844 71.136719 141.488281 71.230469 141.019531 C 71.324219 140.546875 71.464844 140.085938 71.648438 139.644531 C 71.832031 139.199219 72.058594 138.777344 72.324219 138.378906 C 72.59375 137.976562 72.898438 137.605469 73.238281 137.265625 C 73.578125 136.925781 73.949219 136.625 74.347656 136.355469 C 74.75 136.089844 75.171875 135.863281 75.617188 135.679688 C 76.058594 135.496094 76.519531 135.355469 76.992188 135.261719 C 77.460938 135.167969 77.9375 135.121094 78.421875 135.121094 Z M 78.421875 135.121094 " fill-opacity="1" fill-rule="nonzero"/><path fill="#8c52ff" d="M 78.421875 237.667969 L 141.339844 237.667969 C 141.824219 237.667969 142.300781 237.714844 142.769531 237.808594 C 143.242188 237.902344 143.703125 238.042969 144.144531 238.226562 C 144.589844 238.410156 145.011719 238.636719 145.414062 238.902344 C 145.8125 239.171875 146.183594 239.476562 146.523438 239.816406 C 146.863281 240.15625 147.167969 240.523438 147.4375 240.925781 C 147.703125 241.324219 147.929688 241.746094 148.113281 242.191406 C 148.296875 242.636719 148.4375 243.09375 148.53125 243.566406 C 148.625 244.035156 148.671875 244.511719 148.671875 244.996094 L 148.671875 246.824219 C 148.671875 247.304688 148.625 247.78125 148.53125 248.253906 C 148.4375 248.726562 148.296875 249.183594 148.113281 249.628906 C 147.929688 250.074219 147.703125 250.496094 147.4375 250.894531 C 147.167969 251.292969 146.863281 251.664062 146.523438 252.003906 C 146.183594 252.34375 145.8125 252.648438 145.414062 252.914062 C 145.011719 253.183594 144.589844 253.410156 144.144531 253.59375 C 143.703125 253.777344 143.242188 253.914062 142.769531 254.007812 C 142.300781 254.101562 141.824219 254.148438 141.339844 254.148438 L 78.421875 254.148438 C 77.9375 254.148438 77.460938 254.101562 76.992188 254.007812 C 76.519531 253.914062 76.058594 253.777344 75.617188 253.59375 C 75.171875 253.410156 74.75 253.183594 74.347656 252.914062 C 73.949219 252.648438 73.578125 252.34375 73.238281 252.003906 C 72.898438 251.664062 72.59375 251.292969 72.324219 250.894531 C 72.058594 250.496094 71.832031 250.074219 71.648438 249.628906 C 71.464844 249.183594 71.324219 248.726562 71.230469 248.253906 C 71.136719 247.78125 71.089844 247.304688 71.089844 246.824219 L 71.089844 244.996094 C 71.089844 244.511719 71.136719 244.035156 71.230469 243.566406 C 71.324219 243.09375 71.464844 242.636719 71.648438 242.191406 C 71.832031 241.746094 72.058594 241.324219 72.324219 240.925781 C 72.59375 240.523438 72.898438 240.15625 73.238281 239.816406 C 73.578125 239.476562 73.949219 239.171875 74.347656 238.902344 C 74.75 238.636719 75.171875 238.410156 75.617188 238.226562 C 76.058594 238.042969 76.519531 237.902344 76.992188 237.808594 C 77.460938 237.714844 77.9375 237.667969 78.421875 237.667969 Z M 78.421875 237.667969 " fill-opacity="1" fill-rule="nonzero"/><g clip-path="url(#99d00b2fc8)"><path fill="#8c52ff" d="M 14.582031 185.175781 L 140.425781 185.175781 C 140.964844 185.175781 141.503906 185.230469 142.035156 185.335938 C 142.566406 185.441406 143.082031 185.597656 143.582031 185.804688 C 144.082031 186.011719 144.554688 186.265625 145.007812 186.566406 C 145.457031 186.863281 145.875 187.207031 146.257812 187.589844 C 146.640625 187.972656 146.980469 188.386719 147.28125 188.835938 C 147.582031 189.289062 147.835938 189.761719 148.042969 190.261719 C 148.25 190.761719 148.40625 191.277344 148.511719 191.808594 C 148.617188 192.339844 148.671875 192.875 148.671875 193.414062 C 148.671875 193.957031 148.617188 194.492188 148.511719 195.023438 C 148.40625 195.554688 148.25 196.070312 148.042969 196.570312 C 147.835938 197.070312 147.582031 197.542969 147.28125 197.992188 C 146.980469 198.445312 146.640625 198.859375 146.257812 199.242188 C 145.875 199.625 145.457031 199.964844 145.007812 200.265625 C 144.554688 200.566406 144.082031 200.820312 143.582031 201.027344 C 143.082031 201.234375 142.566406 201.390625 142.035156 201.496094 C 141.503906 201.601562 140.964844 201.65625 140.425781 201.65625 L 14.582031 201.65625 C 14.042969 201.65625 13.507812 201.601562 12.976562 201.496094 C 12.445312 201.390625 11.929688 201.234375 11.429688 201.027344 C 10.925781 200.820312 10.453125 200.566406 10.003906 200.265625 C 9.550781 199.964844 9.136719 199.625 8.753906 199.242188 C 8.371094 198.859375 8.027344 198.445312 7.726562 197.992188 C 7.425781 197.542969 7.171875 197.070312 6.964844 196.570312 C 6.757812 196.070312 6.601562 195.554688 6.496094 195.023438 C 6.390625 194.492188 6.335938 193.957031 6.335938 193.414062 C 6.335938 192.875 6.390625 192.339844 6.496094 191.808594 C 6.601562 191.277344 6.757812 190.761719 6.964844 190.261719 C 7.171875 189.761719 7.425781 189.289062 7.726562 188.835938 C 8.027344 188.386719 8.371094 187.972656 8.753906 187.589844 C 9.136719 187.207031 9.550781 186.863281 10.003906 186.566406 C 10.453125 186.265625 10.925781 186.011719 11.429688 185.804688 C 11.929688 185.597656 12.445312 185.441406 12.976562 185.335938 C 13.507812 185.230469 14.042969 185.175781 14.582031 185.175781 Z M 14.582031 185.175781 " fill-opacity="1" fill-rule="nonzero"/></g></svg>