<svg xmlns="http://www.w3.org/2000/svg" xmlns:xlink="http://www.w3.org/1999/xlink" width="500" zoomAndPan="magnify" viewBox="0 0 375 374.999991" height="500" preserveAspectRatio="xMidYMid meet" version="1.0"><defs><clipPath id="f64bc4bd7d"><path d="M 121 85.03125 L 369.332031 85.03125 L 369.332031 242 L 121 242 Z M 121 85.03125 " clip-rule="nonzero"/></clipPath><clipPath id="eb47335612"><path d="M 157 247 L 213 247 L 213 303.28125 L 157 303.28125 Z M 157 247 " clip-rule="nonzero"/></clipPath><clipPath id="8bebafc198"><path d="M 234 247 L 291 247 L 291 303.28125 L 234 303.28125 Z M 234 247 " clip-rule="nonzero"/></clipPath><clipPath id="0a48935c82"><path d="M 5.582031 179 L 149 179 L 149 197 L 5.582031 197 Z M 5.582031 179 " clip-rule="nonzero"/></clipPath></defs><g clip-path="url(#f64bc4bd7d)"><path fill="#00bf63" d="M 369.332031 127.699219 L 344.179688 232.363281 C 344.179688 232.859375 344.128906 233.355469 344.03125 233.84375 C 343.933594 234.328125 343.789062 234.804688 343.597656 235.261719 C 343.40625 235.722656 343.171875 236.160156 342.894531 236.574219 C 342.621094 236.988281 342.304688 237.371094 341.953125 237.722656 C 341.601562 238.074219 341.222656 238.386719 340.808594 238.664062 C 340.394531 238.941406 339.960938 239.175781 339.5 239.367188 C 339.042969 239.558594 338.570312 239.703125 338.082031 239.800781 C 337.59375 239.902344 337.101562 239.949219 336.605469 239.953125 L 167.140625 241.183594 C 166.644531 241.179688 166.152344 241.132812 165.664062 241.03125 C 165.179688 240.933594 164.703125 240.789062 164.246094 240.597656 C 163.789062 240.40625 163.351562 240.171875 162.9375 239.894531 C 162.527344 239.621094 162.144531 239.304688 161.792969 238.953125 C 161.441406 238.601562 161.128906 238.21875 160.851562 237.804688 C 160.574219 237.390625 160.339844 236.953125 160.148438 236.492188 C 159.957031 236.035156 159.8125 235.5625 159.714844 235.074219 C 159.617188 234.585938 159.566406 234.089844 159.566406 233.59375 L 159.566406 127.6875 C 159.5625 127.480469 159.574219 127.273438 159.59375 127.066406 L 157.300781 106.574219 L 132.25 106.574219 C 131.566406 106.546875 130.886719 106.453125 130.21875 106.296875 C 129.550781 106.136719 128.902344 105.917969 128.277344 105.636719 C 127.648438 105.351562 127.054688 105.015625 126.492188 104.617188 C 125.933594 104.21875 125.414062 103.773438 124.9375 103.277344 C 124.460938 102.78125 124.035156 102.246094 123.664062 101.667969 C 123.289062 101.089844 122.976562 100.480469 122.71875 99.839844 C 122.460938 99.203125 122.269531 98.546875 122.136719 97.871094 C 122.007812 97.195312 121.941406 96.511719 121.941406 95.824219 C 121.941406 95.136719 122.007812 94.453125 122.136719 93.777344 C 122.269531 93.101562 122.460938 92.445312 122.71875 91.808594 C 122.976562 91.167969 123.289062 90.558594 123.664062 89.980469 C 124.035156 89.402344 124.460938 88.867188 124.9375 88.371094 C 125.414062 87.875 125.933594 87.429688 126.492188 87.03125 C 127.054688 86.632812 127.648438 86.296875 128.277344 86.011719 C 128.902344 85.730469 129.550781 85.511719 130.21875 85.351562 C 130.886719 85.195312 131.566406 85.101562 132.25 85.074219 L 176.46875 85.074219 C 176.472656 85.113281 176.472656 85.152344 176.46875 85.191406 L 178.863281 106.585938 L 180.378906 120.105469 L 361.753906 120.105469 C 362.253906 120.109375 362.746094 120.15625 363.230469 120.257812 C 363.71875 120.355469 364.191406 120.5 364.652344 120.691406 C 365.109375 120.882812 365.546875 121.117188 365.960938 121.394531 C 366.371094 121.671875 366.753906 121.984375 367.105469 122.335938 C 367.457031 122.691406 367.769531 123.074219 368.046875 123.488281 C 368.324219 123.902344 368.558594 124.335938 368.75 124.796875 C 368.9375 125.257812 369.082031 125.730469 369.179688 126.21875 C 369.277344 126.707031 369.328125 127.203125 369.332031 127.699219 Z M 369.332031 127.699219 " fill-opacity="1" fill-rule="nonzero"/></g><g clip-path="url(#eb47335612)"><path fill="#119656" d="M 212.296875 275.601562 C 212.296875 276.507812 212.253906 277.410156 212.164062 278.3125 C 212.074219 279.214844 211.941406 280.109375 211.765625 280.996094 C 211.589844 281.882812 211.371094 282.761719 211.109375 283.628906 C 210.847656 284.496094 210.542969 285.347656 210.195312 286.183594 C 209.851562 287.019531 209.464844 287.839844 209.039062 288.636719 C 208.613281 289.4375 208.148438 290.210938 207.644531 290.964844 C 207.144531 291.71875 206.605469 292.445312 206.03125 293.144531 C 205.457031 293.847656 204.851562 294.515625 204.210938 295.15625 C 203.574219 295.796875 202.90625 296.40625 202.207031 296.980469 C 201.507812 297.554688 200.78125 298.09375 200.03125 298.597656 C 199.277344 299.097656 198.503906 299.5625 197.707031 299.992188 C 196.910156 300.417969 196.09375 300.804688 195.257812 301.152344 C 194.421875 301.5 193.574219 301.804688 192.707031 302.066406 C 191.84375 302.328125 190.964844 302.546875 190.078125 302.726562 C 189.195312 302.902344 188.300781 303.035156 187.402344 303.125 C 186.5 303.210938 185.597656 303.257812 184.695312 303.257812 C 183.792969 303.257812 182.890625 303.210938 181.988281 303.125 C 181.089844 303.035156 180.195312 302.902344 179.308594 302.726562 C 178.421875 302.546875 177.546875 302.328125 176.683594 302.066406 C 175.816406 301.804688 174.96875 301.5 174.132812 301.152344 C 173.296875 300.804688 172.480469 300.417969 171.683594 299.992188 C 170.886719 299.5625 170.113281 299.097656 169.359375 298.597656 C 168.609375 298.09375 167.882812 297.554688 167.183594 296.980469 C 166.484375 296.40625 165.816406 295.796875 165.175781 295.15625 C 164.539062 294.515625 163.933594 293.847656 163.359375 293.144531 C 162.785156 292.445312 162.246094 291.71875 161.746094 290.964844 C 161.242188 290.210938 160.777344 289.4375 160.351562 288.636719 C 159.925781 287.839844 159.539062 287.019531 159.195312 286.183594 C 158.847656 285.347656 158.542969 284.496094 158.28125 283.628906 C 158.019531 282.761719 157.800781 281.882812 157.625 280.996094 C 157.445312 280.109375 157.3125 279.214844 157.226562 278.3125 C 157.136719 277.410156 157.09375 276.507812 157.09375 275.601562 C 157.09375 274.695312 157.136719 273.792969 157.226562 272.890625 C 157.3125 271.988281 157.445312 271.09375 157.625 270.207031 C 157.800781 269.316406 158.019531 268.4375 158.28125 267.574219 C 158.542969 266.707031 158.847656 265.855469 159.195312 265.015625 C 159.539062 264.179688 159.925781 263.363281 160.351562 262.5625 C 160.777344 261.765625 161.242188 260.988281 161.746094 260.234375 C 162.246094 259.484375 162.785156 258.757812 163.359375 258.054688 C 163.933594 257.355469 164.539062 256.683594 165.175781 256.046875 C 165.816406 255.40625 166.484375 254.796875 167.183594 254.222656 C 167.882812 253.648438 168.609375 253.109375 169.359375 252.605469 C 170.113281 252.101562 170.886719 251.636719 171.683594 251.210938 C 172.480469 250.785156 173.296875 250.398438 174.132812 250.050781 C 174.96875 249.703125 175.816406 249.398438 176.683594 249.136719 C 177.546875 248.871094 178.421875 248.652344 179.308594 248.476562 C 180.195312 248.300781 181.089844 248.167969 181.988281 248.078125 C 182.890625 247.988281 183.792969 247.945312 184.695312 247.945312 C 185.597656 247.945312 186.5 247.988281 187.402344 248.078125 C 188.300781 248.167969 189.191406 248.300781 190.078125 248.476562 C 190.964844 248.652344 191.84375 248.871094 192.707031 249.136719 C 193.574219 249.398438 194.421875 249.703125 195.257812 250.050781 C 196.09375 250.398438 196.910156 250.785156 197.707031 251.210938 C 198.503906 251.636719 199.277344 252.101562 200.03125 252.605469 C 200.78125 253.109375 201.507812 253.648438 202.207031 254.222656 C 202.90625 254.796875 203.574219 255.40625 204.210938 256.046875 C 204.851562 256.683594 205.457031 257.355469 206.03125 258.054688 C 206.605469 258.757812 207.144531 259.484375 207.644531 260.234375 C 208.148438 260.988281 208.613281 261.765625 209.039062 262.5625 C 209.464844 263.363281 209.851562 264.179688 210.195312 265.015625 C 210.542969 265.855469 210.847656 266.707031 211.109375 267.574219 C 211.371094 268.4375 211.589844 269.316406 211.765625 270.207031 C 211.941406 271.09375 212.074219 271.988281 212.164062 272.890625 C 212.253906 273.792969 212.296875 274.695312 212.296875 275.601562 Z M 212.296875 275.601562 " fill-opacity="1" fill-rule="nonzero"/></g><g clip-path="url(#8bebafc198)"><path fill="#119656" d="M 290.199219 275.601562 C 290.199219 276.507812 290.15625 277.410156 290.066406 278.3125 C 289.976562 279.214844 289.84375 280.109375 289.667969 280.996094 C 289.492188 281.882812 289.273438 282.761719 289.011719 283.628906 C 288.75 284.496094 288.445312 285.347656 288.097656 286.183594 C 287.753906 287.019531 287.367188 287.839844 286.941406 288.636719 C 286.515625 289.4375 286.050781 290.210938 285.546875 290.964844 C 285.046875 291.71875 284.507812 292.445312 283.933594 293.144531 C 283.359375 293.847656 282.753906 294.515625 282.113281 295.15625 C 281.476562 295.796875 280.808594 296.40625 280.109375 296.980469 C 279.410156 297.554688 278.683594 298.09375 277.933594 298.597656 C 277.179688 299.097656 276.40625 299.5625 275.609375 299.992188 C 274.8125 300.417969 273.996094 300.804688 273.160156 301.152344 C 272.324219 301.5 271.476562 301.804688 270.609375 302.066406 C 269.746094 302.328125 268.867188 302.546875 267.980469 302.726562 C 267.097656 302.902344 266.203125 303.035156 265.304688 303.125 C 264.402344 303.210938 263.5 303.257812 262.597656 303.257812 C 261.695312 303.257812 260.792969 303.210938 259.890625 303.125 C 258.992188 303.035156 258.097656 302.902344 257.210938 302.726562 C 256.324219 302.546875 255.449219 302.328125 254.585938 302.066406 C 253.71875 301.804688 252.871094 301.5 252.035156 301.152344 C 251.199219 300.804688 250.382812 300.417969 249.585938 299.992188 C 248.789062 299.5625 248.015625 299.097656 247.261719 298.597656 C 246.511719 298.09375 245.785156 297.554688 245.085938 296.980469 C 244.386719 296.40625 243.71875 295.796875 243.078125 295.15625 C 242.441406 294.515625 241.835938 293.847656 241.261719 293.144531 C 240.6875 292.445312 240.148438 291.71875 239.648438 290.964844 C 239.144531 290.210938 238.679688 289.4375 238.253906 288.636719 C 237.828125 287.839844 237.441406 287.019531 237.097656 286.183594 C 236.75 285.347656 236.445312 284.496094 236.183594 283.628906 C 235.921875 282.761719 235.703125 281.882812 235.527344 280.996094 C 235.347656 280.109375 235.21875 279.214844 235.128906 278.3125 C 235.039062 277.410156 234.996094 276.507812 234.996094 275.601562 C 234.996094 274.695312 235.039062 273.792969 235.128906 272.890625 C 235.21875 271.988281 235.347656 271.09375 235.527344 270.207031 C 235.703125 269.316406 235.921875 268.4375 236.183594 267.574219 C 236.445312 266.707031 236.75 265.855469 237.097656 265.015625 C 237.441406 264.179688 237.828125 263.363281 238.253906 262.5625 C 238.679688 261.765625 239.144531 260.988281 239.648438 260.234375 C 240.148438 259.484375 240.6875 258.757812 241.261719 258.054688 C 241.835938 257.355469 242.441406 256.683594 243.078125 256.046875 C 243.71875 255.40625 244.386719 254.796875 245.085938 254.222656 C 245.785156 253.648438 246.511719 253.109375 247.261719 252.605469 C 248.015625 252.101562 248.789062 251.636719 249.585938 251.210938 C 250.382812 250.785156 251.199219 250.398438 252.035156 250.050781 C 252.871094 249.703125 253.71875 249.398438 254.585938 249.136719 C 255.449219 248.871094 256.324219 248.652344 257.210938 248.476562 C 258.097656 248.300781 258.992188 248.167969 259.890625 248.078125 C 260.792969 247.988281 261.695312 247.945312 262.597656 247.945312 C 263.5 247.945312 264.402344 247.988281 265.304688 248.078125 C 266.203125 248.167969 267.097656 248.300781 267.980469 248.476562 C 268.867188 248.652344 269.746094 248.871094 270.609375 249.136719 C 271.476562 249.398438 272.324219 249.703125 273.160156 250.050781 C 273.996094 250.398438 274.8125 250.785156 275.609375 251.210938 C 276.40625 251.636719 277.179688 252.101562 277.933594 252.605469 C 278.683594 253.109375 279.410156 253.648438 280.109375 254.222656 C 280.808594 254.796875 281.476562 255.40625 282.113281 256.046875 C 282.753906 256.683594 283.359375 257.355469 283.933594 258.054688 C 284.507812 258.757812 285.046875 259.484375 285.546875 260.234375 C 286.050781 260.988281 286.515625 261.765625 286.941406 262.5625 C 287.367188 263.363281 287.753906 264.179688 288.097656 265.015625 C 288.445312 265.855469 288.75 266.707031 289.011719 267.574219 C 289.273438 268.4375 289.492188 269.316406 289.667969 270.207031 C 289.84375 271.09375 289.976562 271.988281 290.066406 272.890625 C 290.15625 273.792969 290.199219 274.695312 290.199219 275.601562 Z M 290.199219 275.601562 " fill-opacity="1" fill-rule="nonzero"/></g><path fill="#00bf63" d="M 77.960938 129.324219 L 141.144531 129.324219 C 141.625 129.324219 142.105469 129.371094 142.578125 129.464844 C 143.054688 129.5625 143.515625 129.699219 143.960938 129.886719 C 144.40625 130.070312 144.832031 130.296875 145.234375 130.566406 C 145.632812 130.835938 146.007812 131.140625 146.347656 131.484375 C 146.691406 131.828125 146.996094 132.199219 147.261719 132.601562 C 147.53125 133.003906 147.757812 133.429688 147.945312 133.878906 C 148.128906 134.324219 148.269531 134.785156 148.363281 135.261719 C 148.457031 135.734375 148.503906 136.214844 148.503906 136.699219 L 148.503906 138.542969 C 148.503906 139.027344 148.457031 139.507812 148.363281 139.980469 C 148.269531 140.457031 148.128906 140.917969 147.945312 141.367188 C 147.757812 141.8125 147.53125 142.238281 147.261719 142.640625 C 146.996094 143.042969 146.691406 143.414062 146.347656 143.757812 C 146.007812 144.101562 145.632812 144.40625 145.234375 144.675781 C 144.832031 144.945312 144.40625 145.171875 143.960938 145.355469 C 143.515625 145.542969 143.054688 145.683594 142.578125 145.777344 C 142.105469 145.871094 141.625 145.917969 141.144531 145.917969 L 77.960938 145.917969 C 77.480469 145.917969 77 145.871094 76.527344 145.777344 C 76.050781 145.683594 75.59375 145.542969 75.144531 145.355469 C 74.699219 145.171875 74.273438 144.945312 73.871094 144.675781 C 73.472656 144.40625 73.097656 144.101562 72.757812 143.757812 C 72.414062 143.414062 72.109375 143.042969 71.84375 142.640625 C 71.574219 142.238281 71.347656 141.8125 71.160156 141.367188 C 70.976562 140.917969 70.835938 140.457031 70.742188 139.980469 C 70.648438 139.507812 70.601562 139.027344 70.601562 138.542969 L 70.601562 136.699219 C 70.601562 136.214844 70.648438 135.734375 70.742188 135.261719 C 70.835938 134.785156 70.976562 134.324219 71.160156 133.878906 C 71.347656 133.429688 71.574219 133.003906 71.84375 132.601562 C 72.109375 132.199219 72.414062 131.828125 72.757812 131.484375 C 73.097656 131.140625 73.472656 130.835938 73.871094 130.566406 C 74.273438 130.296875 74.699219 130.070312 75.144531 129.886719 C 75.59375 129.699219 76.050781 129.5625 76.527344 129.464844 C 77 129.371094 77.480469 129.324219 77.960938 129.324219 Z M 77.960938 129.324219 " fill-opacity="1" fill-rule="nonzero"/><path fill="#00bf63" d="M 77.960938 232.578125 L 141.144531 232.578125 C 141.625 232.578125 142.105469 232.625 142.578125 232.71875 C 143.054688 232.8125 143.515625 232.953125 143.960938 233.140625 C 144.40625 233.324219 144.832031 233.550781 145.234375 233.820312 C 145.632812 234.089844 146.007812 234.394531 146.347656 234.738281 C 146.691406 235.078125 146.996094 235.453125 147.261719 235.855469 C 147.53125 236.257812 147.757812 236.683594 147.945312 237.128906 C 148.128906 237.578125 148.269531 238.039062 148.363281 238.515625 C 148.457031 238.988281 148.503906 239.46875 148.503906 239.953125 L 148.503906 241.796875 C 148.503906 242.28125 148.457031 242.761719 148.363281 243.234375 C 148.269531 243.710938 148.128906 244.171875 147.945312 244.617188 C 147.757812 245.066406 147.53125 245.492188 147.261719 245.894531 C 146.996094 246.296875 146.691406 246.667969 146.347656 247.011719 C 146.007812 247.351562 145.632812 247.660156 145.234375 247.929688 C 144.832031 248.199219 144.40625 248.425781 143.960938 248.609375 C 143.515625 248.796875 143.054688 248.933594 142.578125 249.03125 C 142.105469 249.125 141.625 249.171875 141.144531 249.171875 L 77.960938 249.171875 C 77.480469 249.171875 77 249.125 76.527344 249.03125 C 76.050781 248.933594 75.59375 248.796875 75.144531 248.609375 C 74.699219 248.425781 74.273438 248.195312 73.871094 247.929688 C 73.472656 247.660156 73.097656 247.351562 72.757812 247.011719 C 72.414062 246.667969 72.109375 246.296875 71.84375 245.894531 C 71.574219 245.492188 71.347656 245.066406 71.160156 244.617188 C 70.976562 244.171875 70.835938 243.710938 70.742188 243.234375 C 70.648438 242.761719 70.601562 242.28125 70.601562 241.796875 L 70.601562 239.953125 C 70.601562 239.46875 70.648438 238.988281 70.742188 238.515625 C 70.835938 238.039062 70.976562 237.578125 71.160156 237.128906 C 71.347656 236.683594 71.574219 236.257812 71.84375 235.855469 C 72.109375 235.453125 72.414062 235.078125 72.757812 234.738281 C 73.097656 234.394531 73.472656 234.089844 73.871094 233.820312 C 74.273438 233.550781 74.699219 233.324219 75.144531 233.140625 C 75.59375 232.953125 76.050781 232.8125 76.527344 232.71875 C 77 232.625 77.480469 232.578125 77.960938 232.578125 Z M 77.960938 232.578125 " fill-opacity="1" fill-rule="nonzero"/><g clip-path="url(#0a48935c82)"><path fill="#00bf63" d="M 13.859375 179.722656 L 140.222656 179.722656 C 140.765625 179.722656 141.304688 179.777344 141.839844 179.882812 C 142.371094 179.988281 142.890625 180.144531 143.390625 180.355469 C 143.894531 180.5625 144.371094 180.816406 144.824219 181.121094 C 145.277344 181.421875 145.695312 181.765625 146.078125 182.152344 C 146.464844 182.539062 146.804688 182.957031 147.109375 183.410156 C 147.410156 183.863281 147.664062 184.339844 147.875 184.84375 C 148.082031 185.347656 148.238281 185.867188 148.34375 186.402344 C 148.449219 186.933594 148.503906 187.472656 148.503906 188.019531 C 148.503906 188.5625 148.449219 189.105469 148.34375 189.636719 C 148.238281 190.171875 148.082031 190.691406 147.875 191.195312 C 147.664062 191.699219 147.410156 192.175781 147.109375 192.628906 C 146.804688 193.082031 146.464844 193.5 146.078125 193.886719 C 145.695312 194.269531 145.277344 194.613281 144.824219 194.917969 C 144.371094 195.21875 143.894531 195.476562 143.390625 195.683594 C 142.890625 195.894531 142.371094 196.050781 141.839844 196.15625 C 141.304688 196.261719 140.765625 196.316406 140.222656 196.316406 L 13.859375 196.316406 C 13.316406 196.316406 12.777344 196.261719 12.246094 196.15625 C 11.710938 196.050781 11.195312 195.894531 10.691406 195.683594 C 10.191406 195.476562 9.710938 195.21875 9.261719 194.917969 C 8.808594 194.613281 8.390625 194.269531 8.003906 193.886719 C 7.621094 193.5 7.277344 193.082031 6.976562 192.628906 C 6.671875 192.175781 6.417969 191.699219 6.210938 191.195312 C 6.003906 190.691406 5.84375 190.171875 5.738281 189.636719 C 5.632812 189.105469 5.582031 188.5625 5.582031 188.019531 C 5.582031 187.472656 5.632812 186.933594 5.738281 186.402344 C 5.84375 185.867188 6.003906 185.347656 6.210938 184.84375 C 6.417969 184.339844 6.671875 183.863281 6.976562 183.410156 C 7.277344 182.957031 7.621094 182.539062 8.003906 182.152344 C 8.390625 181.765625 8.808594 181.421875 9.261719 181.121094 C 9.710938 180.816406 10.191406 180.5625 10.691406 180.355469 C 11.195312 180.144531 11.710938 179.988281 12.246094 179.882812 C 12.777344 179.777344 13.316406 179.722656 13.859375 179.722656 Z M 13.859375 179.722656 " fill-opacity="1" fill-rule="nonzero"/></g></svg>